<?xml version="1.0" encoding="UTF-8"?>
<!DOCTYPE svg PUBLIC "-//W3C//DTD SVG 1.1//EN" "http://www.w3.org/Graphics/SVG/1.1/DTD/svg11.dtd">
<!-- Creator: CorelDRAW Home & Student X8 -->
<svg xmlns="http://www.w3.org/2000/svg" xml:space="preserve" width="101.6mm" height="101.6mm" version="1.1" style="shape-rendering:geometricPrecision; text-rendering:geometricPrecision; image-rendering:optimizeQuality; fill-rule:evenodd; clip-rule:evenodd"
viewBox="0 0 18183 18183"
 xmlns:xlink="http://www.w3.org/1999/xlink">
 <defs>
  <style type="text/css">
   <![CDATA[
    .str0 {stroke:white;stroke-width:536.888}
    .str1 {stroke:#90671D;stroke-width:894.814}
    .fil0 {fill:black}
    .fil2 {fill:#90671D;fill-rule:nonzero}
    .fil1 {fill:white;fill-rule:nonzero}
   ]]>
  </style>
 </defs>
 <g id="Warstwa_x0020_1">
  <metadata id="CorelCorpID_0Corel-Layer"/>
  <rect class="fil0" width="18183" height="18183"/>
  <g id="_513644616">
   <path class="fil1 str0" d="M12552 13365c152,-446 261,-766 331,-957 67,-192 210,-583 427,-1174l1530 -4098 1597 0 -3226 8246 -1355 0 -3225 -8246 1608 0 1530 4098c217,591 360,982 427,1174 70,191 179,511 331,957l25 0z"/>
   <path class="fil2 str1" d="M6136 4076c-411,0 -792,68 -1139,205 -347,134 -644,332 -892,591 -251,259 -444,579 -583,960 -141,380 -211,816 -211,1304 0,486 64,914 192,1282 126,368 309,675 549,922 238,246 528,433 871,559 343,125 733,188 1168,188 314,0 632,-23 956,-72 326,-46 629,-116 913,-206l0 1290c-288,82 -598,145 -930,194 -335,46 -680,69 -1038,69 -698,0 -1313,-99 -1843,-299 -528,-200 -972,-482 -1330,-846 -356,-364 -625,-799 -804,-1307 -179,-507 -269,-1069 -269,-1681 0,-629 96,-1212 288,-1751 191,-539 467,-1006 829,-1400 360,-395 810,-705 1351,-932 541,-225 1153,-341 1835,-345 350,0 680,23 994,70 311,48 593,113 843,199l0 1272c-328,-99 -635,-167 -919,-207 -282,-40 -560,-59 -831,-59z"/>
  </g>
 </g>
</svg>
